<?xml version="1.0" encoding="utf-8"?>
<!-- Generator: Adobe Illustrator 25.4.1, SVG Export Plug-In . SVG Version: 6.00 Build 0)  -->
<svg version="1.1" id="Camada_1" xmlns="http://www.w3.org/2000/svg" xmlns:xlink="http://www.w3.org/1999/xlink" x="0px" y="0px"
	 viewBox="0 0 918 147.6" style="enable-background:new 0 0 918 147.6;" xml:space="preserve">
<style type="text/css">
	.st0{clip-path:url(#SVGID_00000106115924131647671000000016493153823029245113_);fill:#BC5E40;}
</style>
<g>
	<defs>
		<rect id="SVGID_1_" width="918" height="147.6"/>
	</defs>
	<clipPath id="SVGID_00000057835009914310617130000011656879015779483810_">
		<use xlink:href="#SVGID_1_"  style="overflow:visible;"/>
	</clipPath>
	<path style="clip-path:url(#SVGID_00000057835009914310617130000011656879015779483810_);fill:#BC5E40;" d="M449.8,122.3v-66
		c0-14.4-2.9-23.6-5.9-29.8c-3.1-6.2-7.2-11.2-12.2-15c-5-3.8-10.8-6.5-17.2-8.1c-6.4-1.6-13.3-2.4-20.6-2.4
		c-8.8,0-18.1,0.9-27.4,2.7c-9.3,1.8-18.6,4.1-27.6,6.9l-0.9,0.3l0.2,0.9c0,0.1,2.9,11.6,14.8,11.6c5.6,0,12.3-2.6,19.9-7.5
		c2.1-1.1,4.1-2.2,5.9-3.3c7.3-4.1,13-7.3,21-7.3c7.4,0,13.3,2.4,17.5,7.2c4.2,4.8,6.4,11.9,6.4,21.1v15.3
		c-13.5,0.1-26,1.5-37.3,4.2c-11.6,2.8-21.8,6.8-30.1,11.9c-8.4,5.2-15,11.5-19.6,18.9c-4.7,7.4-7,15.9-7,25.2
		c0,6.2,1.1,11.7,3.2,16.4c2.1,4.7,5.1,8.7,8.7,11.8c3.6,3.1,7.8,5.5,12.5,7.1c4.7,1.6,9.7,2.4,15,2.4c5.8,0,11.8-1,17.8-3
		c6-2,11.7-5.1,16.9-9.1c5.2-4,9.8-9.2,13.7-15.3c2.6-4.1,4.7-8.6,6.3-13.5v17c-0.2,11.1-1.4,18.7-1.9,21.1l0.7,0.8H451l0.7-0.8
		C451.3,141.5,450,133.7,449.8,122.3 M419.8,102.9c-2.6,6.3-6,11.6-10,15.8c-4,4.2-8.6,7.5-13.6,9.8c-4.9,2.3-9.9,3.4-14.8,3.4
		c-3.5,0-6.8-0.6-9.9-1.9c-3-1.2-5.8-3.1-8.1-5.6c-2.3-2.5-4.2-5.7-5.5-9.5c-1.3-3.8-2-8.4-2-13.7c0-29.8,22.8-45.7,67.7-47.5v28
		C423.7,89.5,422.4,96.6,419.8,102.9"/>
	<path style="clip-path:url(#SVGID_00000057835009914310617130000011656879015779483810_);fill:#BC5E40;" d="M613.6,120.8V53.5
		c0-8.6-1.4-16.3-4.2-22.8c-2.8-6.6-6.6-12.2-11.4-16.6c-4.7-4.4-10.2-7.7-16.3-9.9c-6.1-2.2-12.3-3.3-18.6-3.3
		c-5.8,0-11.6,1-17.4,2.9c-5.8,1.9-11.2,4.9-16,8.7c-4.8,3.9-9.1,8.8-12.7,14.8c-2.3,3.8-4.1,7.9-5.5,12.5l0-35.3l-2.9-1.9
		l-30.8,8.9l0,3.2l1,0c0.3,0,6.8,0.3,6.8,7.9v97.7c0,12.4-1.4,21-1.9,23.6l0.7,0.8h28.3l0.7-0.8c-0.5-2.6-1.9-11.3-1.9-23.8V71.4
		c0-10.2,1.2-19.1,3.6-26.3c2.4-7.2,5.5-13.3,9.3-18c3.8-4.7,8.1-8.2,12.9-10.3c4.8-2.2,9.6-3.3,14.5-3.3c4.5,0,9,0.9,13.4,2.8
		c4.3,1.8,8.3,4.5,11.6,7.8c3.3,3.3,6.1,7.5,8.1,12.5c2,5,3,10.6,3,16.9c0,0,0,69.9,0,66.3c0,12.7-1.4,21.5-1.9,24.2l0.7,0.8h28.3
		l0.7-0.8C615,141.3,613.7,133,613.6,120.8"/>
	<path style="clip-path:url(#SVGID_00000057835009914310617130000011656879015779483810_);fill:#BC5E40;" d="M135.9,120.8V53.5
		c0-8.6-1.4-16.3-4.2-22.8c-2.8-6.6-6.6-12.2-11.4-16.6c-4.7-4.4-10.2-7.7-16.3-9.9C97.9,2,91.7,0.8,85.4,0.8
		c-5.8,0-11.6,1-17.4,2.9c-5.8,1.9-11.2,4.9-16,8.7c-4.8,3.9-9.1,8.8-12.7,14.8c-2.3,3.8-4.1,7.9-5.5,12.5l0-35.3l-2.9-1.9L0,11.4
		l0,3.2l1,0c0.3,0,6.8,0.3,6.8,7.9v97.7c0,12.4-1.4,21-1.9,23.6l0.7,0.8h28.3l0.7-0.8c-0.5-2.6-1.9-11.3-1.9-23.8V71.4
		c0-10.2,1.2-19.1,3.6-26.3c2.4-7.2,5.5-13.3,9.3-18c3.8-4.7,8.1-8.2,12.9-10.3c4.8-2.2,9.6-3.3,14.5-3.3c4.5,0,9,0.9,13.3,2.8
		c4.3,1.8,8.3,4.5,11.6,7.8c3.3,3.3,6.1,7.5,8.1,12.5c2,5,3,10.6,3,16.9c0,0,0,69.9,0,66.3c0,12.7-1.4,21.5-1.9,24.2l0.7,0.8h28.3
		l0.7-0.8C137.3,141.3,136,133,135.9,120.8"/>
	<path style="clip-path:url(#SVGID_00000057835009914310617130000011656879015779483810_);fill:#BC5E40;" d="M299.7,119.7
		c0,4,0-115.3,0-115.3l-2.9-1.9l-30.8,8.9v3.2l1,0c0.3,0,6.8,0.2,6.8,7.9l0,54.5c0,10.2-1.2,19.1-3.6,26.3c-2.4,7.2-5.5,13.3-9.3,18
		c-3.8,4.7-8.1,8.2-12.9,10.3c-4.8,2.2-9.6,3.3-14.5,3.3c-4.5,0-9-0.9-13.4-2.8c-4.4-1.8-8.3-4.5-11.6-7.8
		c-3.3-3.3-6.1-7.6-8.1-12.5c-2-5-3-10.6-3-16.9l0-90.6l-2.9-1.9l-30.8,8.9v3.2l1,0c0.3,0,6.8,0.2,6.8,7.9V95
		c0,8.5,1.4,16.2,4.3,22.8c2.8,6.6,6.6,12.2,11.4,16.6c4.7,4.4,10.2,7.7,16.3,9.9c6.1,2.2,12.3,3.3,18.6,3.3c5.8,0,11.6-1,17.4-2.9
		c5.8-1.9,11.2-4.9,16-8.7c4.8-3.9,9.1-8.8,12.7-14.8c2.3-3.8,4.1-7.9,5.5-12.5v11.5c0,12.5-1.4,21.1-1.9,23.7l0.7,0.8h28.3l0.7-0.8
		C301.1,141.3,299.7,132.5,299.7,119.7"/>
	<path style="clip-path:url(#SVGID_00000057835009914310617130000011656879015779483810_);fill:#BC5E40;" d="M705.1,147.6
		c-8,0-16.1-1.5-23.8-4.5c-7.8-3-14.8-7.5-20.8-13.5c-6-6-11-13.6-14.6-22.5c-3.7-8.9-5.5-19.4-5.5-31.2c0-13.2,2.1-24.7,6.2-34.2
		c4.1-9.6,9.7-17.5,16.6-23.6c6.9-6.1,15-10.7,24-13.6c9-2.9,18.4-4.4,27.9-4.4c14.4,0,28.8,3,42.7,8.9l1.1,0.5l-0.7,1
		c-0.3,0.4-6.9,10.3-20,10.3c-4.2,0-8.6-1.1-13.2-3.1c-10.7-4.8-20.9-7.3-30.2-7.3c-5.7,0-11.2,0.9-16.1,2.8
		c-4.9,1.8-9.3,4.6-12.9,8.3c-3.6,3.7-6.4,8.3-8.5,13.8c-2,5.5-3.1,12-3.1,19.3c0,11.9,1.9,22.2,5.5,30.8
		c3.7,8.6,8.5,15.9,14.3,21.6c5.8,5.7,12.6,10,20,12.8c7.5,2.8,15,4.2,22.5,4.2c10.7,0,20.6-2.7,29.6-8c7.1-4.2,12.7-10.1,16.6-17.6
		l0.3-0.5h4l-0.3,1.3c-1.8,6.6-4.3,12.7-7.4,17.9c-4.1,6.8-9,12.5-14.6,17c-5.6,4.5-11.9,8-18.7,10.2
		C719.1,146.4,712.1,147.6,705.1,147.6"/>
	<path style="clip-path:url(#SVGID_00000057835009914310617130000011656879015779483810_);fill:#BC5E40;" d="M850.3,147.6
		c-8.6,0-17.1-1.5-25.4-4.5c-8.3-3-15.8-7.5-22.3-13.6c-6.5-6-11.7-13.6-15.7-22.6c-3.9-9-5.9-19.6-5.9-31.7c0-12.7,2-23.9,5.9-33.2
		c3.9-9.3,9.1-17.1,15.4-23.2c6.3-6,13.6-10.6,21.6-13.4c8-2.9,16.3-4.3,24.5-4.3c7.5,0,14.9,1.2,22.1,3.5
		c7.2,2.4,13.6,5.9,19.1,10.4c5.5,4.6,10,10.3,13.4,16.9c3.3,6.7,5,14.4,5,23c0,1.9-0.1,3.7-0.4,5.1c-0.3,1.6-0.9,2.9-1.8,3.9
		c-0.9,1-2.3,1.7-4,2.1c-1.6,0.4-3.8,0.5-6.7,0.5h-21.7c-8.2,0-16.7,0-25.4-0.1s-17.2-0.1-25.5-0.1h-20.7c1.1,9.9,3.5,18.6,7,25.9
		c3.7,7.5,8.4,13.8,13.8,18.6c5.4,4.8,11.5,8.5,18.2,10.8c6.7,2.4,13.6,3.6,20.5,3.6c5.8,0,11.5-0.8,17.1-2.3
		c5.6-1.5,10.9-3.8,15.8-6.8c4.9-2.9,9.4-6.6,13.3-11c2-2.2,3.9-4.8,5.5-7.5l0.3-0.5h4.6l-0.4,1.3c-1.9,6.5-4.6,12.3-7.9,17.4
		c-4.5,7-10,12.9-16.3,17.5c-6.3,4.6-13.2,8.2-20.5,10.5C865.5,146.4,857.9,147.6,850.3,147.6 M868.7,60.8c6.2,0,10.6-0.7,13-2
		c2.2-1.2,3.4-4.5,3.4-9.7c0-6.7-1.2-12.8-3.5-18.1c-2.4-5.3-5.5-9.9-9.4-13.6c-3.9-3.7-8.3-6.6-13.2-8.5C854.1,7,849,6,843.8,6
		c-5.2,0-10.4,1.1-15.4,3.2c-5,2.1-9.6,5.4-13.5,9.9c-4,4.5-7.2,10.3-9.7,17.3c-2.4,6.8-3.6,15-3.7,24.5H868.7z"/>
</g>
</svg>
